<?xml version="1.0" standalone="no"?>
<!DOCTYPE svg PUBLIC "-//W3C//DTD SVG 20010904//EN"
 "http://www.w3.org/TR/2001/REC-SVG-20010904/DTD/svg10.dtd">
<svg version="1.0" xmlns="http://www.w3.org/2000/svg"
 width="192.000000pt" height="192.000000pt" viewBox="0 0 192.000000 192.000000"
 preserveAspectRatio="xMidYMid meet">
<metadata>
Created by potrace 1.14, written by Peter Selinger 2001-2017
</metadata>
<g transform="translate(0.000000,192.000000) scale(0.100000,-0.100000)"
fill="#000000" stroke="none">
<path d="M845 1590 c-55 -24 -103 -73 -131 -134 -30 -66 -35 -121 -17 -175 12
-37 12 -44 0 -54 -19 -16 -87 -102 -87 -111 0 -4 -8 -15 -17 -26 -25 -26 -108
-185 -127 -243 -15 -45 -22 -133 -13 -167 16 -63 49 -120 85 -149 19 -14 44
-33 55 -43 23 -17 20 -27 -10 -33 -10 -2 -18 -4 -18 -5 0 -1 -8 -3 -18 -5 -22
-4 -43 -28 -63 -72 -25 -57 -15 -107 29 -145 14 -13 19 -30 19 -65 0 -56 -9
-108 -22 -134 -6 -10 -10 -20 -10 -23 0 -3 189 -6 420 -6 l420 0 1 23 c1 12 1
25 0 30 -2 16 9 5 24 -23 15 -29 17 -30 89 -30 l73 0 -28 58 c-37 78 -42 92
-53 150 -4 17 -2 32 3 32 18 0 51 67 51 103 0 47 -12 75 -47 113 -31 34 -67
53 -110 56 -17 2 -16 13 2 32 8 8 15 19 15 24 0 6 4 12 8 14 5 2 16 25 24 52
15 46 18 169 5 221 -11 41 -38 110 -53 132 -8 13 -12 23 -8 23 3 0 -5 15 -18
33 -14 17 -27 37 -29 44 -15 42 -158 186 -222 221 -47 27 -48 27 -41 67 21
113 -15 205 -85 220 -11 3 -29 7 -38 9 -10 2 -36 -4 -58 -14z"/>
</g>
</svg>
